# AST/ASF file generated using VICON BodyLanguage
# -----------------------------------------------
:version 1.10
:name VICON
:units
  mass 1.0
  length 0.45
  angle deg
:documentation
   .ast/.asf automatically generated from VICON data using
   VICON BodyBuilder and BodyLanguage model FoxedUp or BRILLIANT.MOD
:root
   order TX TY TZ RX RY RZ
   axis XYZ
   position 0 0 0  
   orientation 0 0 0 
:bonedata
  begin
     id 1 
     name lhipjoint
     direction 0.543289 -0.788407 0.288535 
     length 2.57127 
     axis 0 0 0  XYZ
  end
  begin
     id 2 
     name lfemur
     direction 0.34202 -0.939693 0  
     length 8.47298  
     axis 0 0 20  XYZ
    dof rx ry rz
    limits (-160.0 20.0)
           (-70.0 70.0)
           (-60.0 70.0)
  end
  begin
     id 3 
     name ltibia
     direction 0.34202 -0.939693 0   
     length 8.13367   
     axis 0 0 20   XYZ
    dof rx
    limits (-10.0 170.0)
  end
  begin
     id 4 
     name lfoot
     direction 0.114037 -0.313314 0.942778   
     length 2.67113   
     axis -90 7.62852e-016 20   XYZ
    dof rx rz
    limits (-45.0 90.0)
           (-70.0 20.0)
  end
  begin
     id 5 
     name ltoes
     direction 1.536e-011 -4.21847e-011 1   
     length 1.32217   
     axis -90 7.62852e-016 20   XYZ
    dof rx
    limits (-90.0 20.0)
  end
  begin
     id 6 
     name rhipjoint
     direction -0.571293 -0.770752 0.282074   
     length 2.63017  
     axis 0 0 0  XYZ 
  end
  begin
     id 7 
     name rfemur
     direction -0.34202 -0.939693 0   
     length 8.60885   
     axis 0 0 -20   XYZ
    dof rx ry rz
    limits (-160.0 20.0)
           (-70.0 70.0)
           (-70.0 60.0)
  end
  begin
     id 8 
     name rtibia
     direction -0.34202 -0.939693 0   
     length 8.07673   
     axis 0 0 -20   XYZ
    dof rx
    limits (-10.0 170.0)
 end
 begin
     id 9 
     name rfoot
     direction -0.121336 -0.333368 0.934956   
     length 2.81602  
     axis -90 -7.62852e-016 -20   XYZ
    dof rx rz
    limits (-45.0 90.0)
           (-20.0 70.0)
  end
  begin
     id 10 
     name rtoes
     direction -1.53491e-011 -4.21808e-011 1   
     length 1.38905   
     axis -90 -7.62852e-016 -20   XYZ
    dof rx
    limits (-90.0 20.0)
  end
  begin
     id 11 
     name lowerback
     direction 0.0136776 0.999869 -0.00861835   
     length 2.14087   
     axis 0 0 0   XYZ
    dof rx ry rz
    limits (-20.0 45.0)
           (-30.0 30.0)
           (-30.0 30.0)
  end
  begin
     id 12 
     name upperback
     direction -0.00789158 0.999804 0.0181308   
     length 2.14151   
     axis 0 0 0   XYZ
    dof rx ry rz
    limits (-20.0 45.0)
           (-30.0 30.0)
           (-30.0 30.0)
  end
  begin
     id 13 
     name thorax
     direction -0.0135231 0.999666 0.0220247   
     length 2.13644   
     axis 0 0 0   XYZ
    dof rx ry rz
    limits (-20.0 45.0)
           (-30.0 30.0)
           (-30.0 30.0)
  end
  begin
     id 14 
     name lowerneck
     direction -0.0392259 0.997317 0.0618018   
     length 1.65045   
     axis 0 0 0   XYZ
    dof rx ry rz
    limits (-20.0 45.0)
           (-30.0 30.0)
           (-30.0 30.0)
  end
  begin
     id 15 
     name upperneck
     direction 0.0765547 0.994276 -0.0745319   
     length 1.66045   
     axis 0 0 0   XYZ
    dof rx ry rz
    limits (-20.0 45.0)
           (-30.0 30.0)
           (-30.0 30.0)
  end
  begin
     id 16
     name head
     direction 0.0241564 0.999031 -0.036785  
     length 1.66594  
     axis 0 0 0   XYZ
    dof rx ry rz
    limits (-20.0 45.0)
           (-30.0 30.0)
           (-30.0 30.0)
  end
  begin
     id 17 
     name lclavicle
     direction 0.967398 0.249018 0.0461573  
     length 3.75176  
     axis 0 0 0   XYZ
    dof ry rz
    limits (-20.0 10.0)
           (0.0 20.0)
  end
  begin
     id 18 
     name lhumerus
     direction 1 -4.48963e-011 -3.05005e-027   
     length 5.93342   
     axis 180 -30 -90   XYZ
    dof rx ry rz
    limits (-60.0 90.0)
           (-90.0 90.0)
           (-90.0 90.0)
  end
  begin
     id 19
     name lradius
     direction 1 -4.48957e-011 1.07006e-026   
     length 3.94763   
     axis 180 -30 -90   XYZ
    dof rx
    limits (-10.0 170.0)
  end
  begin
     id 20
     name lwrist
     direction 1 -4.48978e-011 1.92422e-026   
     length 1.97382   
     axis -1.18182e-014 90 90   XYZ
    dof ry
    limits (-180.0 0.0)
 end
  begin
     id 21 
     name lhand
     direction 1 -4.48931e-011 3.84844e-026   
     length 0.560187   
     axis -2.45563e-014 90 90   XYZ
    dof rx rz
    limits (-90.0 90.0)
           (-45.0 45.0)
  end
  begin
     id 22 
     name lfingers
     direction 1 -4.48952e-011 7.69687e-026   
     length 0.451637   
     axis -4.91126e-014 90 90   XYZ
    dof rx
    limits (0.0 90.0)
  end
  begin
     id 23
     name lthumb
     direction 0.707107 -6.34901e-011 0.707107   
     length 0.648463   
     axis -90 45 2.85299e-015   XYZ
    dof rx rz
    limits (-45.0 45.0)
           (-45.0 45.0)
  end
  begin
     id 24 
     name rclavicle
     direction -0.965946 0.258716 0.00371831   
     length 3.63667  
     axis 0 0 0   XYZ 
    dof ry rz
    limits (-10.0 20.0)
           (-20.0 0.0)
  end
  begin
     id 25 
     name rhumerus
     direction -1 -4.48966e-011 -1.78361e-028  
     length 6.28647   
     axis 180 30 90   XYZ
    dof rx ry rz
    limits (-90.0 60.0)
           (-90.0 90.0)
           (-90.0 90.0)
  end
  begin
     id 26 
     name rradius
     direction -1 -4.48961e-011 1.05248e-026   
     length 3.81645   
     axis 180 30 90   XYZ
    dof rx
    limits (-10.0 170.0)
  end
  begin
     id 27 
     name rwrist
     direction -1 -4.48979e-011 1.92422e-026   
     length 1.90822   
     axis -1.18182e-014 -90 -90   XYZ
    dof ry
    limits (-180.0 0.0)
  end
  begin
     id 28
     name rhand
     direction -1 -4.48937e-011 3.84844e-026   
     length 0.646185   
     axis -2.45563e-014 -90 -90   XYZ
    dof rx rz
    limits (-90.0 90.0)
           (-45.0 45.0)
  end
  begin
     id 29
     name rfingers
     direction -1 -4.48953e-011 7.69687e-026   
     length 0.520971   
     axis -4.91126e-014 -90 -90   XYZ
    dof rx
    limits (0.0 90.0)
  end
  begin
     id 30
     name rthumb
     direction -0.707107 -6.3494e-011 0.707107   
     length 0.748013   
     axis -90 -45 -2.85299e-015   XYZ
    dof rx rz
    limits (-45.0 45.0)
           (-45.0 45.0)
  end
:hierarchy
  begin
    root lhipjoint rhipjoint lowerback
    lhipjoint lfemur
    lfemur ltibia
    ltibia lfoot
    lfoot ltoes
    rhipjoint rfemur
    rfemur rtibia
    rtibia rfoot
    rfoot rtoes
    lowerback upperback
    upperback thorax
    thorax lowerneck lclavicle rclavicle
    lowerneck upperneck
    upperneck head
    lclavicle lhumerus
    lhumerus lradius
    lradius lwrist
    lwrist lhand lthumb
    lhand lfingers
    rclavicle rhumerus
    rhumerus rradius
    rradius rwrist
    rwrist rhand rthumb
    rhand rfingers
  end

#!OML:ASF H:\HAZMAT1\Patient Classification 1\Patient 3\Session 1\dancer.ASF
:FULLY-SPECIFIED
:DEGREES
122
upperback -4.225160 -0.287043 4.086200
rfoot 11.600500 -32.594398
lradius 26.884800
lthumb 1.825150 57.649601
rradius 29.293800
lwrist 6.073480
rhand -31.781000 -397.820007
rhumerus -28.669600 -39.306198 15.111300
lowerneck -5.115770 1.449630 4.166940
lhand -24.675301 387.678009
ltibia 37.174198
head 3.196710 0.954597 -0.603748
rwrist -22.146200
lfingers 7.125020
rtoes 27.760599
lowerback -1.881040 -0.544730 8.474900
rfingers 7.125020
lclavicle -0.000000 -0.000000
upperneck 7.031150 1.641560 0.156768
rfemur -13.760100 -4.941390 1.626010
thorax -3.385420 -0.204540 -0.505783
rclavicle -0.000000 -0.000000
rtibia 43.443199
lfoot -37.276600 21.575800
lhumerus -23.497299 46.119701 -19.559900
rthumb -5.037310 -67.739799
root -10.474400 18.776501 24.874300 -147.121994 45.403099 -521.968994
ltoes 12.843800
lfemur -16.835501 -384.016998 -13.230200
123
upperback -3.636160 -2.200630 2.091160
rfoot 3.440350 -26.165701
lradius 23.428699
lthumb -4.259830 67.827904
rradius 26.653799
lwrist 1.824740
rhand -30.562500 -397.239014
rhumerus -39.012699 -31.877300 15.620500
lowerneck -5.159520 0.224004 3.059050
lhand -30.975901 397.890991
ltibia 21.860001
head 2.464130 0.105948 -0.608283
rwrist -17.725100
lfingers 7.125020
rtoes 21.227900
lowerback -2.584530 -1.762570 5.474440
rfingers 7.125020
lclavicle -0.000000 0.000000
upperneck 4.961030 0.098037 -0.266349
rfemur -51.404202 -17.347500 19.369200
thorax -2.432880 -1.136120 -0.917533
rclavicle -0.000000 0.000000
rtibia 43.197601
lfoot -34.929401 15.326100
lhumerus -34.942501 43.331200 -26.321301
rthumb -3.860670 -67.183899
root -8.521840 18.172400 23.116100 -158.345001 38.063202 -529.710999
ltoes 9.134460
lfemur 5.813330 -381.915985 -20.643700
124
upperback -3.004690 -5.443570 1.996900
rfoot 10.641400 -25.269899
lradius 23.882299
lthumb 8.004350 53.124901
rradius 23.114500
lwrist 1.893800
rhand -26.081699 -393.386993
rhumerus -53.964600 -26.335400 10.116100
lowerneck -5.404280 -1.990870 0.679267
lhand -18.275600 383.295990
ltibia 0.000000
head 1.053860 -1.329930 -0.727070
rwrist -9.872080
lfingers 7.125020
rtoes 22.346300
lowerback -2.521500 -4.154390 5.515660
rfingers 7.125020
lclavicle 0.000000 -0.000000
upperneck 0.603398 -2.630960 -1.777560
rfemur -75.959297 -28.471500 45.114601
thorax -2.013420 -2.750130 -1.040090
rclavicle 0.000000 -0.000000
rtibia 45.633400
lfoot -19.386499 2.686950
lhumerus -48.282101 35.491798 -5.661220
rthumb 0.466858 -63.366100
root -5.658900 17.056700 20.522400 -164.880997 21.555901 -537.192993
ltoes -9.712280
lfemur 28.687901 -380.859009 -17.640499
125
upperback -1.034000 -5.210860 1.556240
rfoot -16.112499 -31.738600
lradius 14.246700
lthumb 11.353600 47.534599
rradius 19.873400
lwrist -20.596399
rhand -21.303499 -383.061005
rhumerus -8.114180 -25.678400 -61.169300
lowerneck -1.815130 -1.668600 -0.707424
lhand -14.804200 377.862000
ltibia 40.615501
head -4.223100 -0.438493 1.374630
rwrist 7.092350
lfingers 7.125020
rtoes 22.600700
lowerback 3.698720 -4.290440 8.363860
rfingers 7.125020
lclavicle 0.000000 0.000000
upperneck -13.936400 -1.215280 3.679670
rfemur -95.794998 -19.635799 49.134201
thorax -3.757030 -2.732910 -2.657810
rclavicle 0.000000 0.000000
rtibia 67.215797
lfoot -22.883200 1.541710
lhumerus -30.522900 54.655201 54.411201
rthumb 5.081270 -52.979801
root -3.261660 15.902100 18.574900 -152.059006 21.011000 -541.849976
ltoes -14.159500
lfemur -2.615820 -374.243988 -12.592700
126
upperback 5.551420 -5.567050 1.654330
rfoot -17.557501 -28.428499
lradius 33.296799
lthumb 13.181600 43.394100
rradius 40.113499
lwrist 10.934400
rhand -16.699800 -380.283997
rhumerus 59.403900 10.912400 -63.807201
lowerneck -2.155990 -1.459760 0.013393
lhand -12.908300 373.830994
ltibia 54.226002
head 4.768890 -0.638730 0.145192
rwrist -8.301750
lfingers 7.125020
rtoes 23.217699
lowerback 6.541040 -4.759360 8.095780
rfingers 7.125020
lclavicle -0.000000 -0.000000
upperneck 13.203400 -1.652310 0.632425
rfemur -112.511002 -10.326700 56.547600
thorax 1.513330 -2.416920 -2.470280
rclavicle -0.000000 -0.000000
rtibia 65.836098
lfoot -21.622999 14.696800
lhumerus 48.630402 -6.727210 93.471298
rthumb 9.525040 -50.048302
root -2.147730 15.939600 18.342600 -134.238007 20.708799 -545.484009
ltoes -8.641390
lfemur -31.931499 -361.423004 -14.035600
127
upperback 8.896520 -4.674950 3.801320
rfoot -16.339100 -28.222099
lradius 49.446999
lthumb 5.197160 48.857300
rradius 55.435101
lwrist 7.731320
rhand -22.285999 -378.083008
rhumerus 75.174103 0.207529 -63.057499
lowerneck -0.752694 -2.991710 0.949049
lhand -21.183500 378.941010
ltibia 55.667999
head 9.035710 -0.243837 -0.841730
rwrist -11.646800
lfingers 7.125020
rtoes 24.188999
lowerback 8.891550 -4.335730 3.722580
rfingers 7.125020
lclavicle 0.000000 0.000000
upperneck 28.619600 -1.480350 -1.885610
rfemur -117.462997 -8.575570 58.097599
thorax 4.339850 -1.894610 2.150150
rclavicle 0.000000 0.000000
rtibia 60.627102
lfoot -23.663700 16.039499
lhumerus 76.464104 -10.205100 76.166199
rthumb 4.132600 -48.022202
root -1.782370 16.271601 18.447901 -128.035004 17.986900 -548.945984
ltoes -9.271370
lfemur -45.378399 -352.559998 -20.921101
128
upperback 8.616040 -8.765750 4.299170
rfoot -11.728900 -32.636299
lradius 35.406799
lthumb 9.342240 43.500198
rradius 43.763401
lwrist 0.483429
rhand -22.306101 -377.286011
rhumerus 48.854099 14.592900 -52.122101
lowerneck -4.018270 -1.837880 -3.469130
lhand -16.889200 373.726990
ltibia 58.556702
head 11.616600 0.653209 0.856997
rwrist -5.092830
lfingers 7.125020
rtoes 27.367701
lowerback 10.137700 -7.516410 3.179310
rfingers 7.125020
lclavicle -0.000000 -0.000000
upperneck 33.611500 1.010460 0.023038
rfemur -114.300003 -15.119100 55.343399
thorax 3.614850 -3.983960 3.342810
rclavicle -0.000000 -0.000000
rtibia 52.929298
lfoot -32.757500 14.947500
lhumerus 48.517300 -12.063300 68.648804
rthumb 4.113170 -47.226101
root -2.392330 16.657900 19.431101 -132.466995 10.816300 -550.784973
ltoes -2.838410
lfemur -53.728901 -347.408997 -24.470501
129
upperback 8.310490 -10.478500 2.945000
rfoot -5.569950 -46.679901
lradius 16.632500
lthumb 12.777800 47.675400
rradius 26.278601
lwrist -22.773300
rhand -17.944401 -378.342987
rhumerus -22.779699 19.177900 -67.159698
lowerneck -5.885850 -3.500830 -5.253010
lhand -13.327200 378.085999
ltibia 50.798500
head 13.482400 0.124091 1.432020
rwrist 11.725000
lfingers 7.125020
rtoes 31.583300
lowerback 8.807640 -8.692480 1.943330
rfingers 7.125020
lclavicle 0.000000 -0.000000
upperneck 36.881001 -0.378086 0.823059
rfemur -84.364304 -24.941601 17.627501
thorax 4.030970 -4.840120 2.545630
rclavicle 0.000000 -0.000000
rtibia 39.444500
lfoot -36.983398 12.189700
lhumerus -8.372770 8.542240 77.205704
rthumb 8.324020 -48.159199
root -4.440530 17.337400 21.146900 -148.768005 5.338290 -553.460999
ltoes -8.761010
lfemur -37.959801 -351.763000 -27.739799
130
upperback 9.525950 -9.461550 2.208530
rfoot 13.656500 -43.288898
lradius 15.014600
lthumb 12.749900 48.238701
rradius 14.213000
lwrist -29.900700
rhand -11.465100 -381.167999
rhumerus -61.401798 1.416760 -49.675598
lowerneck -5.164900 -2.492500 -6.273940
lhand -13.356100 378.648010
ltibia 49.921200
head 11.627000 0.174823 1.623740
rwrist 30.524300
lfingers 7.125020
rtoes 34.156898
lowerback 7.422630 -7.924450 2.698050
rfingers 7.125020
lclavicle -0.000000 -0.000000
upperneck 32.941200 0.159479 0.935279
rfemur -83.971100 -24.663500 15.225900
thorax 5.799630 -4.204550 1.089570
rclavicle -0.000000 -0.000000
rtibia 38.442501
lfoot -34.474400 10.865700
lhumerus -59.043400 15.841900 38.436699
rthumb 14.572500 -50.636600
root -6.576850 18.101299 22.975300 -153.608002 11.567400 -549.013977
ltoes -1.055760
lfemur -39.233700 -348.692993 -32.251801
131
upperback 10.809400 -9.556220 3.222290
rfoot 28.189199 -30.170099
lradius 11.486000
lthumb 22.251301 50.553101
rradius 13.374600
lwrist -45.699100
rhand -3.181340 -381.989014
rhumerus -70.259804 1.616520 -41.391998
lowerneck -6.262560 -1.408990 -7.499910
lhand -3.481980 381.813995
ltibia 43.844299
head 11.821800 0.715012 1.730100
rwrist 31.210400
lfingers 7.125020
rtoes 31.441799
lowerback 8.484670 -8.189220 3.587120
rfingers 7.125020
lclavicle 0.000000 0.000000
upperneck 32.999199 2.099430 0.082185
rfemur -97.036697 -23.596600 31.578199
thorax 6.669090 -4.131640 1.737210
rclavicle 0.000000 0.000000
rtibia 42.123100
lfoot -30.454800 12.182600
lhumerus -82.629700 9.613010 5.383940
rthumb 22.539900 -50.693298
root -7.555210 18.748501 23.925400 -151.921997 15.731000 -544.752991
ltoes 6.978170
lfemur -41.539501 -348.151001 -32.495998
132
upperback 11.246800 -8.933920 3.256480
rfoot 31.018900 -25.757799
lradius 10.970200
lthumb 23.539000 52.290199
rradius 12.651300
lwrist -51.093700
rhand 2.918680 -380.692993
rhumerus -70.342697 2.786150 -38.215801
lowerneck -7.171590 -1.526070 -7.476990
lhand -2.140110 383.710999
ltibia 47.132000
head 12.442400 0.719091 1.819040
rwrist 36.623100
lfingers 7.125020
rtoes 29.850300
lowerback 9.381430 -7.843780 3.478770
rfingers 7.125020
lclavicle -0.000000 0.000000
upperneck 34.047600 2.130000 0.232715
rfemur -99.825699 -23.874599 36.324200
thorax 6.669740 -3.785810 1.899690
rclavicle -0.000000 0.000000
rtibia 44.311798
lfoot -32.093700 12.302900
lhumerus -83.239700 7.251030 0.329504
rthumb 28.382900 -48.561600
root -7.738200 18.542999 23.918400 -151.936996 17.104401 -545.476013
ltoes 6.445870
lfemur -43.580200 -347.363007 -34.683899
133
upperback 11.186700 -9.417170 2.971500
rfoot 30.009899 -33.563000
lradius 11.017400
lthumb 23.439301 52.823299
rradius 12.360200
lwrist -50.115898
rhand 3.449860 -380.209015
rhumerus -70.070801 2.841640 -37.982700
lowerneck -6.788190 -2.069390 -6.682580
lhand -2.244050 384.230988
ltibia 51.984100
head 13.175900 0.660723 1.702260
rwrist 39.481400
lfingers 7.125020
rtoes 36.893299
lowerback 9.583740 -8.221730 2.829300
rfingers 7.125020
lclavicle 0.000000 -0.000000
upperneck 35.887699 1.657870 0.311341
rfemur -91.291603 -26.202101 29.809200
thorax 6.555210 -4.052750 1.994450
rclavicle 0.000000 -0.000000
rtibia 40.063702
lfoot -36.760201 12.136700
lhumerus -80.700302 10.352900 3.371440
rthumb 28.890301 -47.992001
root -6.894930 17.997700 22.828501 -153.927994 14.960500 -547.197021
ltoes 0.563049
lfemur -39.339001 -345.933014 -32.866600
